<?xml version="1.0" encoding="UTF-8" standalone="no"?>
<!-- Created with Inkscape (http://www.inkscape.org/) -->

<svg
   xmlns:dc="http://purl.org/dc/elements/1.1/"
   xmlns:cc="http://creativecommons.org/ns#"
   xmlns:rdf="http://www.w3.org/1999/02/22-rdf-syntax-ns#"
   xmlns:svg="http://www.w3.org/2000/svg"
   xmlns="http://www.w3.org/2000/svg"
   xmlns:xlink="http://www.w3.org/1999/xlink"
   xmlns:sodipodi="http://sodipodi.sourceforge.net/DTD/sodipodi-0.dtd"
   xmlns:inkscape="http://www.inkscape.org/namespaces/inkscape"
   width="1000"
   height="1000"
   viewBox="0 0 264.58333 264.58334"
   version="1.1"
   id="svg8"
   inkscape:version="0.92.3 (2405546, 2018-03-11)"
   sodipodi:docname="CTFS-Flower1-Red.svg">
  <title
     id="title1608">CTFS Flower 1 Red</title>
  <defs
     id="defs2">
    <inkscape:path-effect
       is_visible="true"
       id="path-effect36123"
       effect="spiro" />
    <inkscape:path-effect
       end_linecap_type="round"
       miter_limit="4"
       linejoin_type="extrp_arc"
       start_linecap_type="round"
       interpolator_beta="0.2"
       interpolator_type="Linear"
       sort_points="true"
       offset_points="0.23518959,-6.1732776 | 1.3416731,-3.7966316 | 2.8285843,-2.3573672"
       is_visible="true"
       id="path-effect36125"
       effect="powerstroke" />
    <linearGradient
       inkscape:collect="always"
       id="linearGradient6719">
      <stop
         style="stop-color:#cc0022;stop-opacity:1;"
         offset="0"
         id="stop6721" />
      <stop
         style="stop-color:#ffffff;stop-opacity:1;"
         offset="1"
         id="stop6723" />
    </linearGradient>
    <radialGradient
       inkscape:collect="always"
       xlink:href="#linearGradient6719"
       id="radialGradient36559-3"
       gradientUnits="userSpaceOnUse"
       gradientTransform="matrix(1,0,0,1.1449546,0,-73.561958)"
       cx="392.87164"
       cy="507.48264"
       fx="392.87164"
       fy="507.48264"
       r="346.57358" />
    <radialGradient
       inkscape:collect="always"
       xlink:href="#linearGradient6719"
       id="radialGradient36547-5"
       gradientUnits="userSpaceOnUse"
       gradientTransform="matrix(1,0,0,1.1449546,0,-73.561958)"
       cx="392.87164"
       cy="507.48264"
       fx="392.87164"
       fy="507.48264"
       r="346.57358" />
    <radialGradient
       inkscape:collect="always"
       xlink:href="#linearGradient6719"
       id="radialGradient36549-3"
       gradientUnits="userSpaceOnUse"
       gradientTransform="matrix(1,0,0,1.1449546,0,-73.561958)"
       cx="392.87164"
       cy="507.48264"
       fx="392.87164"
       fy="507.48264"
       r="346.57358" />
    <radialGradient
       inkscape:collect="always"
       xlink:href="#linearGradient6719"
       id="radialGradient36551-5"
       gradientUnits="userSpaceOnUse"
       gradientTransform="matrix(1,0,0,1.1449546,0,-73.561958)"
       cx="392.87164"
       cy="507.48264"
       fx="392.87164"
       fy="507.48264"
       r="346.57358" />
    <radialGradient
       inkscape:collect="always"
       xlink:href="#linearGradient6719"
       id="radialGradient36553-6"
       gradientUnits="userSpaceOnUse"
       gradientTransform="matrix(1,0,0,1.1449546,0,-73.561958)"
       cx="392.87164"
       cy="507.48264"
       fx="392.87164"
       fy="507.48264"
       r="346.57358" />
    <radialGradient
       inkscape:collect="always"
       xlink:href="#linearGradient6719"
       id="radialGradient36555-2"
       gradientUnits="userSpaceOnUse"
       gradientTransform="matrix(1,0,0,1.1449546,0,-73.561958)"
       cx="392.87164"
       cy="507.48264"
       fx="392.87164"
       fy="507.48264"
       r="346.57358" />
    <radialGradient
       inkscape:collect="always"
       xlink:href="#linearGradient6719"
       id="radialGradient36557-9"
       gradientUnits="userSpaceOnUse"
       gradientTransform="matrix(1,0,0,1.1449546,0,-73.561958)"
       cx="392.87164"
       cy="507.48264"
       fx="392.87164"
       fy="507.48264"
       r="346.57358" />
  </defs>
  <sodipodi:namedview
     id="base"
     pagecolor="#ffffff"
     bordercolor="#666666"
     borderopacity="1.0"
     inkscape:pageopacity="0.0"
     inkscape:pageshadow="2"
     inkscape:zoom="0.75"
     inkscape:cx="514.45969"
     inkscape:cy="492.23145"
     inkscape:document-units="mm"
     inkscape:current-layer="layer1"
     showgrid="false"
     units="px"
     inkscape:pagecheckerboard="true"
     inkscape:window-width="1366"
     inkscape:window-height="978"
     inkscape:window-x="1920"
     inkscape:window-y="0"
     inkscape:window-maximized="0"
     inkscape:snap-nodes="false"
     inkscape:snap-others="false"
     inkscape:snap-global="false" />
  <metadata
     id="metadata5">
    <rdf:RDF>
      <cc:Work
         rdf:about="">
        <dc:format>image/svg+xml</dc:format>
        <dc:type
           rdf:resource="http://purl.org/dc/dcmitype/StillImage" />
        <dc:title>CTFS Flower 1</dc:title>
        <dc:date>July 04, 2019</dc:date>
        <dc:creator>
          <cc:Agent>
            <dc:title>Troy Dawson</dc:title>
          </cc:Agent>
        </dc:creator>
        <dc:rights>
          <cc:Agent>
            <dc:title>The copyright holder of this file allows anyone to use it for any purpose, provided that the copyright holder is properly attributed. Redistribution, derivative work, commercial use, and all other use is permitted.</dc:title>
          </cc:Agent>
        </dc:rights>
        <cc:license
           rdf:resource="http://creativecommons.org/licenses/by/4.0/" />
      </cc:Work>
      <cc:License
         rdf:about="http://creativecommons.org/licenses/by/4.0/">
        <cc:permits
           rdf:resource="http://creativecommons.org/ns#Reproduction" />
        <cc:permits
           rdf:resource="http://creativecommons.org/ns#Distribution" />
        <cc:requires
           rdf:resource="http://creativecommons.org/ns#Notice" />
        <cc:requires
           rdf:resource="http://creativecommons.org/ns#Attribution" />
        <cc:permits
           rdf:resource="http://creativecommons.org/ns#DerivativeWorks" />
      </cc:License>
    </rdf:RDF>
  </metadata>
  <g
     inkscape:label="Layer 1"
     inkscape:groupmode="layer"
     id="layer1"
     transform="translate(0,-32.41665)">
    <g
       id="g7937"
       transform="matrix(0.81297082,0,0,0.81297082,9.4427575,55.300245)">
      <g
         transform="matrix(0.18313217,0,0,0.18313214,87.431094,-46.51368)"
         id="g4951-8-1-1-2-9-1"
         style="fill:url(#radialGradient36559-3);fill-opacity:1;stroke:#990033;stroke-width:9;stroke-miterlimit:4.19999981;stroke-dasharray:none;stroke-opacity:1">
        <path
           sodipodi:nodetypes="csccczccc"
           inkscape:connector-curvature="0"
           id="path2985-72-1-0-9-9-6-2"
           d="m 296.73947,454.33302 c 35.32776,32.58425 69.46028,62.39788 30.26053,57.02916 -44.34606,-6.07355 -132.98363,-113.1566 -168,-137 -40.16932,-56.01993 -26.74612,-74.16602 90.61386,-73.20792 -26.96793,-21.45368 36.61665,-31.18256 89.84159,-3.33663 17.60562,-39.50129 27.91182,-28.31881 50.54455,-4.45545 22.63273,23.86336 9.7849,173.10499 -5,184 -71.91607,-69.06849 -49.01896,-60.13964 -25.83039,11.48166 -27.56689,-9.5554 -29.76349,-18.9104 -62.43014,-34.51082 z"
           style="fill:url(#radialGradient36547-5);fill-opacity:1;fill-rule:nonzero;stroke:#ffffff;stroke-width:9;stroke-linejoin:round;stroke-miterlimit:4.19999981;stroke-dasharray:none;stroke-opacity:1" />
        <path
           sodipodi:nodetypes="cccccczcc"
           inkscape:connector-curvature="0"
           id="path2985-5-6-1-3-7-5-2-7"
           d="m 323.21315,548.6964 c -51.66589,9.50001 -89.62817,18.13904 -59.25965,18.12232 48.65119,4.02139 63.72394,-0.60899 61.20848,16.43592 -18.89487,48.32474 -158.48409,95.69289 -196.28645,96.04492 -91.18672,3.23862 -7.64291,-91.78726 -25.25357,-100.10529 -58.47506,-24.98823 -70.99721,-47.15601 -22.32184,-74.81181 -42.43802,-26.05429 -9.333876,-38.444 53.85667,-44.25256 63.19055,-5.80856 191.29427,58.77137 184.59226,67.45688 -32.84322,10.54794 -89.52851,14.39944 3.4641,21.10962 z"
           style="fill:url(#radialGradient36549-3);fill-opacity:1;fill-rule:nonzero;stroke:#ffffff;stroke-width:9;stroke-linejoin:round;stroke-miterlimit:4.19999981;stroke-dasharray:none;stroke-opacity:1" />
        <path
           sodipodi:nodetypes="cccccczcc"
           inkscape:connector-curvature="0"
           id="path2985-1-51-21-7-1-4-1-0"
           d="m 350.0421,673.17212 c 4.46423,-30.37283 3.90491,-12.63864 17.15937,-57.21061 23.42825,73.96021 9.26654,23.74065 28.74895,-3.84763 40.12073,32.90327 42.03509,180.29808 30.68831,216.35904 -25.09813,87.72451 -59.2678,24.52866 -72.62072,38.70698 -41.83501,47.8913 -70.35459,41.27667 -81.61532,-13.56248 -37.89317,32.30974 -191.694911,-8.9977 -81.04099,-113.12667 110.65392,-104.12897 119.31588,-134.83793 137.68105,-134.96184 29.02923,-0.19583 -8.25543,44.20661 20.99935,67.64321 z"
           style="fill:url(#radialGradient36551-5);fill-opacity:1;fill-rule:nonzero;stroke:#ffffff;stroke-width:9;stroke-linejoin:round;stroke-miterlimit:4.19999981;stroke-dasharray:none;stroke-opacity:1" />
        <path
           sodipodi:nodetypes="ccccczcsc"
           inkscape:connector-curvature="0"
           id="path2985-2-36-1-3-4-5-2-9"
           d="m 445.6916,590.90531 c 97.41064,16.32866 0.0306,-6.0327 -0.90833,-43.05824 43.69086,-27.98941 226.46321,22.73742 257.25287,44.6723 75.67522,50.9781 -5.98659,41.94681 3.3715,59.02753 -11.38039,48.58668 -53.48432,86.66639 -109.1192,80.42974 19.01875,46.02282 -70.42774,39.40203 -93.72798,12.14796 -23.30024,-27.25407 -95.27278,-112.17482 -89.71547,-129.67941 5.40241,-17.0167 76.05341,-5.61278 96.26261,3.82741 12.65075,5.90946 -71.87162,-25.55873 -63.416,-27.36729 z"
           style="fill:url(#radialGradient36553-6);fill-opacity:1;fill-rule:nonzero;stroke:#ffffff;stroke-width:9;stroke-linejoin:round;stroke-miterlimit:4.19999981;stroke-dasharray:none;stroke-opacity:1" />
        <path
           sodipodi:nodetypes="ccccczcc"
           inkscape:connector-curvature="0"
           id="path2985-9-71-9-58-0-3-0-3"
           d="m 487.9141,469.43405 c -32.04074,24.04843 -46.28292,37.89612 -73.79603,17.88855 6.88874,-29.83141 52.23572,-156.20214 76.67097,-183.65709 76.81848,-97.80248 53.22765,-1.90838 72.36419,-5.53022 61.99503,-14.15488 215.79941,2.43545 133.05635,127.94455 49.64742,-3.86607 -29.96738,54.49341 -63.08771,68.23129 C 600.00154,508.049 467.49461,542.19 452.56406,531.49547 428.96379,514.59096 493.87887,491.18228 487.9141,469.43405 Z"
           style="fill:url(#radialGradient36555-2);fill-opacity:1;fill-rule:nonzero;stroke:#ffffff;stroke-width:9;stroke-linejoin:round;stroke-miterlimit:4.19999981;stroke-dasharray:none;stroke-opacity:1" />
        <path
           sodipodi:nodetypes="cscccccccccccccccccccccccc"
           inkscape:connector-curvature="0"
           id="path3816-0-3-75-8-2-1-8-7-6"
           d="m 349.92005,545.04454 c -2.34678,28.00494 39.28904,41.57462 65.38824,19.97027 23.14872,-19.16198 -15.32735,-40.19691 -12.44286,-56.24168 17.38922,-84.55495 64.4395,-271.74102 79.99779,-312.31036 1.44274,-1.93304 2.09246,-5.23469 3.94279,-7.55776 18.32914,-4.48529 25.53416,33.81654 40.63348,12.52385 7.05494,-16.49689 -23.4793,-8.54151 -35.95299,-26.66664 2.21989,-5.26407 0.47394,-2.2669 2.20327,-8.18491 10.39559,-3.72481 26.2117,21.01855 35.91613,7.34603 1.33881,-18.90321 -21.53834,-6.13996 -32.56992,-17.46942 0.97015,-4.24581 0.54116,-4.99803 2.34242,-10.11185 9.07158,-1.90396 17.12121,14.4036 25.81311,3.4697 -0.67845,-17.45003 -13.76467,-5.92695 -25.22012,-11.83216 14.08523,-11.04521 9.96613,-15.9014 1.92252,-22.05974 -9.98063,-6.56681 -18.22698,1.83309 -16.86724,17.63497 -12.05635,-5.25155 -10.62256,-23.17979 -24.81649,-10.74019 2.00364,12.92197 15.90245,10.76317 22.17236,17.27482 0.36043,3.56326 -2.20363,6.0544 -2.32728,9.57087 -11.80878,4.93251 -26.64297,-20.8613 -34.73167,-7.84616 -1.57959,15.90067 23.75283,9.89262 32.73155,17.50932 0.30103,5.29684 -0.52942,2.25481 -1.37352,7.82417 -12.84463,12.77645 -39.77182,-24.58697 -45.91162,-3.56059 3.07177,26.66172 32.89037,7.49126 41.0228,16.87793 0.94253,2.68231 -0.55152,5.91734 -1.05785,8.66104 -28.5174,66.77744 -71.85895,283.07532 -83.14727,312.48555 -25.97611,22.50576 -38.92334,20.53426 -37.66763,43.43294 z"
           style="fill:url(#radialGradient36557-9);fill-opacity:1;fill-rule:nonzero;stroke:#ffffff;stroke-width:9;stroke-linejoin:round;stroke-miterlimit:4.19999981;stroke-dasharray:none;stroke-opacity:1" />
      </g>
      <path
         sodipodi:nodetypes="cccccccccccccccccccccssccssssscscsccccscc"
         inkscape:connector-curvature="0"
         id="path3769-6-7-6-6-4"
         d="m 130.22633,249.60426 c 0.8356,0.46021 2.31445,1.06362 4.8927,1.7631 0.41511,2.15659 2.14323,7.2365 4.38293,8.80176 -1.80211,-2.88636 -3.12683,-6.11894 -3.46571,-8.58681 0.74752,0.18799 2.82489,0.67204 3.61915,0.85246 0.15302,1.55646 4.17792,7.48682 5.68105,7.64044 -2.20393,-2.24438 -3.7567,-4.72596 -4.74027,-7.38015 1.36398,0.28952 4.29848,0.81677 5.78313,0.82938 1.3584,2.33946 2.73721,3.55472 4.71255,4.05085 -2.32798,-1.39747 -2.78915,-2.39968 -3.83863,-4.02613 3.42931,0.46325 6.40098,0.85881 7.82587,0.2603 -1.75733,0.12765 -4.81938,-0.24393 -7.80405,-0.95658 0.6154,-1.30293 2.00358,-2.67215 3.69061,-3.7817 -1.74149,0.52984 -3.56477,1.69918 -4.53976,3.61389 -1.61258,-0.16168 -4.18713,-0.48959 -5.79126,-1.02627 1.5177,-2.98294 2.41332,-5.07661 5.42678,-6.85142 -2.1143,0.38084 -5.18182,3.38023 -6.29863,6.63301 -0.86658,-0.30791 -3.0899,-0.93866 -3.87907,-1.24972 0.40278,-1.97268 2.1297,-6.89874 4.79011,-8.49399 -2.86686,0.32342 -5.39693,6.57776 -5.65365,8.34288 -2.10577,-0.9135 -3.95393,-1.45004 -4.48012,-2.05847 0.58783,-2.72595 1.96168,-7.14389 4.18831,-8.46722 0.91898,-0.54615 1.9644,-0.79336 3.05909,-0.83177 0.37917,-0.0134 -0.87534,1.27217 -0.50346,1.15753 3.11234,-0.56928 5.01294,-0.43117 7.5648,0.94521 0.40906,0.26164 -1.65148,0.7132 -1.14769,0.84417 1.5848,0.41203 5.78592,2.01336 6.58863,3.03422 0.2382,0.30301 -1.3954,0.56374 -1.06848,0.76581 1.38648,0.8569 4.4318,2.57999 5.47192,3.71531 0.25491,0.2782 -1.07967,0.24954 -0.88479,0.54571 1.64175,2.49506 4.66182,4.04383 4.66182,4.04383 0,0 -3.56628,2.76259 -5.59293,2.68354 -0.44657,-0.0174 1.18669,0.61275 0.8231,0.91991 -1.84626,1.58931 -4.14788,2.70468 -6.18807,2.82742 -0.42725,0.0257 1.28069,0.86718 0.61891,0.80314 -1.39626,0.41243 -5.57144,0.27876 -7.01316,-0.71804 -0.44442,-0.1682 0.93639,1.29585 0.40142,1.12351 -1.4474,0.16879 -4.27178,-0.0123 -6.16962,-1.70182 -0.42742,-0.38927 0.40382,1.44531 -0.0814,1.12156 -3.40291,-2.27047 -5.03465,-7.098 -5.04227,-11.18882 z"
         style="fill:#000000;fill-opacity:1;fill-rule:nonzero;stroke:#ffffff;stroke-width:0.53845692;stroke-linejoin:round;stroke-miterlimit:4;stroke-dasharray:none;stroke-opacity:1" />
      <path
         sodipodi:nodetypes="cccccccccccccccccccccssccssssscscsccccscc"
         inkscape:connector-curvature="0"
         id="path3769-6-7-2-8-9"
         d="m 126.34161,162.36401 c 0.83559,0.46021 2.31444,1.06362 4.89269,1.7631 0.41511,2.15659 2.14323,7.2365 4.38293,8.80176 -1.80211,-2.88636 -3.12683,-6.11894 -3.46571,-8.58681 0.74752,0.18799 2.82489,0.67204 3.61915,0.85246 0.15302,1.55646 4.17792,7.48682 5.68105,7.64044 -2.20393,-2.24438 -3.7567,-4.72596 -4.74027,-7.38015 1.36398,0.28952 4.29848,0.81677 5.78313,0.82938 1.3584,2.33946 2.73721,3.55472 4.71255,4.05085 -2.32798,-1.39747 -2.78915,-2.39968 -3.83863,-4.02613 3.42931,0.46325 6.40098,0.85881 7.82587,0.2603 -1.75733,0.12765 -4.81938,-0.24393 -7.80405,-0.95658 0.6154,-1.30293 2.00358,-2.67215 3.69061,-3.7817 -1.74148,0.52982 -3.56477,1.69918 -4.53976,3.61388 -1.61258,-0.16167 -4.18713,-0.48958 -5.79126,-1.02627 1.5177,-2.98293 2.41332,-5.07661 5.42678,-6.85143 -2.1143,0.38086 -5.18182,3.38024 -6.29863,6.63303 -0.86658,-0.30791 -3.0899,-0.93867 -3.87906,-1.24972 0.40277,-1.97269 2.12969,-6.89875 4.7901,-8.49399 -2.86686,0.32341 -5.39693,6.57775 -5.65364,8.34288 -2.10578,-0.9135 -3.95393,-1.45004 -4.48013,-2.05847 0.58783,-2.72594 1.96168,-7.14389 4.18831,-8.46723 0.91898,-0.54615 1.9644,-0.79336 3.05909,-0.83177 0.37918,-0.0134 -0.87534,1.27217 -0.50346,1.15753 3.11234,-0.56927 5.01294,-0.43117 7.5648,0.9452 0.40906,0.26165 -1.65148,0.71321 -1.14769,0.84418 1.5848,0.41204 5.78592,2.01337 6.58863,3.03422 0.2382,0.30302 -1.3954,0.56375 -1.06848,0.76583 1.38648,0.85688 4.4318,2.57997 5.47192,3.7153 0.25491,0.2782 -1.07967,0.24953 -0.88478,0.54571 1.64174,2.49505 4.66181,4.04383 4.66181,4.04383 0,0 -3.56628,2.76259 -5.59293,2.68354 -0.44657,-0.0174 1.18669,0.61275 0.8231,0.91991 -1.84626,1.58931 -4.14788,2.70468 -6.18807,2.82742 -0.42725,0.0257 1.28069,0.86718 0.61891,0.80314 -1.39626,0.41243 -5.57144,0.27876 -7.01316,-0.71804 -0.44442,-0.1682 0.93639,1.29585 0.40142,1.12351 -1.44739,0.16879 -4.27178,-0.0123 -6.16962,-1.70182 -0.42741,-0.38927 0.40382,1.44531 -0.0814,1.12156 -3.40291,-2.27047 -5.03465,-7.098 -5.04227,-11.18882 z"
         style="fill:#000000;fill-opacity:1;fill-rule:nonzero;stroke:#ffffff;stroke-width:0.53845692;stroke-linejoin:round;stroke-miterlimit:4;stroke-dasharray:none;stroke-opacity:1" />
      <path
         sodipodi:nodetypes="cssc"
         inkscape:original-d="m 125.95717,132.01384 c -3.83637,24.83586 -7.07322,30.94417 -10.90936,55.78037 -3.83614,24.83621 4.67533,40.87858 7.31286,51.95429 2.63754,11.0757 -7.03324,35.03877 -10.5497,52.55841"
         inkscape:path-effect="#path-effect36123;#path-effect36125"
         inkscape:connector-curvature="0"
         id="path992-59-8-7"
         d="m 131.51356,134.7038 c -1.8523,3.82612 -3.46851,7.76866 -4.84188,11.79709 -4.98615,12.92796 -7.46285,26.94646 -7.1028,41.00092 0.12651,5.75736 0.72025,11.53622 1.4794,17.43277 0.4128,2.7183 0.85712,5.43608 1.30411,8.18144 1.40549,8.63238 2.83064,17.47874 3.16292,26.45914 0.57866,15.40274 -2.1416,30.84902 -7.82508,45.04441 -1.12445,2.95727 -2.37775,5.86613 -3.75768,8.71499 a 2.3573672,2.3573672 90 0 1 -4.24316,-2.0553 c 1.3193,-2.72369 2.51805,-5.50583 3.59392,-8.33534 4.95221,-13.7766 6.98631,-28.53981 5.92272,-43.02208 -0.62865,-8.49287 -2.29359,-16.89281 -4.02293,-25.50274 -0.54525,-2.71464 -1.09791,-5.45661 -1.6195,-8.20497 -1.25634,-5.90128 -2.39287,-11.95055 -3.03686,-18.12752 -1.5308,-15.18737 -0.01,-30.76604 4.45884,-45.56973 1.53395,-4.49948 3.34098,-8.90849 5.4152,-13.193 a 6.1732776,6.1732776 90 0 1 11.11278,5.37992 z"
         style="fill:#000000;fill-rule:nonzero;stroke:#f4f4f4;stroke-width:1.97633469;stroke-linecap:butt;stroke-linejoin:miter;stroke-miterlimit:4;stroke-dasharray:none;stroke-opacity:1" />
      <path
         sodipodi:nodetypes="cccccccccccccccccccccssccssssscscsccccscc"
         inkscape:connector-curvature="0"
         id="path3769-6-7-6-9-2-2-4-9"
         d="m 124.27992,199.1319 c 0.8356,-0.46021 2.31447,-1.06362 4.8927,-1.7631 0.41511,-2.15658 2.14323,-7.2365 4.38293,-8.80176 -1.80211,2.88636 -3.12683,6.11894 -3.46571,8.58681 0.74752,-0.18798 2.82489,-0.67204 3.61915,-0.85246 0.15302,-1.55646 4.17792,-7.48682 5.68106,-7.64044 -2.20394,2.24439 -3.75672,4.72596 -4.74029,7.38016 1.36399,-0.28952 4.29849,-0.81678 5.78314,-0.82939 1.3584,-2.33946 2.73721,-3.55472 4.71255,-4.05084 -2.32798,1.39747 -2.78915,2.39968 -3.83863,4.02613 3.42931,-0.46325 6.40098,-0.85881 7.82587,-0.2603 -1.75733,-0.12766 -4.81938,0.24392 -7.80406,0.95657 0.61541,1.30293 2.00359,2.67215 3.69062,3.7817 -1.74148,-0.52983 -3.56476,-1.69918 -4.53976,-3.61389 -1.61258,0.16169 -4.18713,0.48959 -5.79126,1.02628 1.5177,2.98293 2.41333,5.07661 5.42678,6.85142 -2.11429,-0.38085 -5.18182,-3.38024 -6.29863,-6.63301 -0.86658,0.30791 -3.0899,0.93865 -3.87906,1.24972 0.40277,1.97268 2.12969,6.89874 4.7901,8.49399 -2.86686,-0.32342 -5.39693,-6.57776 -5.65364,-8.34289 -2.10576,0.91351 -3.95392,1.45004 -4.48013,2.05848 0.58783,2.72594 1.96168,7.14388 4.18831,8.46721 0.91898,0.54615 1.9644,0.79336 3.05909,0.83177 0.37918,0.0134 -0.87534,-1.27217 -0.50346,-1.15752 3.11234,0.56927 5.01294,0.43117 7.5648,-0.94521 0.40906,-0.26165 -1.65148,-0.71321 -1.14769,-0.84418 1.5848,-0.41202 5.78592,-2.01336 6.58863,-3.03421 0.2382,-0.30302 -1.3954,-0.56375 -1.06848,-0.76582 1.38648,-0.85689 4.4318,-2.57999 5.47192,-3.7153 0.25491,-0.27821 -1.07967,-0.24955 -0.88478,-0.54572 1.64175,-2.49506 4.66182,-4.04382 4.66182,-4.04382 0,0 -3.56629,-2.7626 -5.59293,-2.68354 -0.44658,0.0174 1.18668,-0.61275 0.82309,-0.91992 -1.84626,-1.58931 -4.14788,-2.70468 -6.18807,-2.82741 -0.42725,-0.0257 1.2807,-0.86718 0.61891,-0.80314 -1.39626,-0.41243 -5.57144,-0.27876 -7.01317,0.71804 -0.44441,0.16819 0.93641,-1.29586 0.40143,-1.12352 -1.4474,-0.16879 -4.27178,0.0123 -6.16962,1.70182 -0.4274,0.38928 0.40382,-1.4453 -0.0814,-1.12156 -3.40291,2.27047 -5.03465,7.098 -5.04226,11.18882 z"
         style="fill:#000000;fill-opacity:1;fill-rule:nonzero;stroke:#ffffff;stroke-width:0.53845692;stroke-linejoin:round;stroke-miterlimit:4;stroke-dasharray:none;stroke-opacity:1" />
      <path
         sodipodi:nodetypes="cccccccccccccccccccccssccssssscscsccccscc"
         inkscape:connector-curvature="0"
         id="path3769-6-7-6-9-2-2-9-3-7"
         d="m 109.73035,206.46484 c -0.8356,0.46021 -2.31446,1.06362 -4.8927,1.7631 -0.4151,2.15659 -2.14323,7.2365 -4.38293,8.80176 1.80211,-2.88636 3.12682,-6.11894 3.46571,-8.58681 -0.74753,0.18799 -2.82489,0.67204 -3.61915,0.85246 -0.15302,1.55646 -4.177917,7.48682 -5.681051,7.64044 2.203935,-2.24438 3.756709,-4.72596 4.740278,-7.38015 -1.363981,0.28952 -4.298489,0.81677 -5.783144,0.82938 -1.358388,2.33946 -2.737204,3.55472 -4.71255,4.05085 2.327984,-1.39747 2.789155,-2.39968 3.838641,-4.02613 -3.429316,0.46325 -6.400979,0.85881 -7.82587,0.2603 1.757324,0.12765 4.819378,-0.24393 7.804051,-0.95658 -0.615411,-1.30293 -2.003588,-2.67215 -3.690614,-3.7817 1.741481,0.52983 3.564761,1.69918 4.53976,3.61389 1.612577,-0.16168 4.187128,-0.48959 5.791266,-1.02627 -1.517713,-2.98294 -2.413328,-5.07661 -5.426784,-6.85142 2.114289,0.38084 5.181818,3.38023 6.298627,6.63301 0.86657,-0.30791 3.0899,-0.93866 3.87907,-1.24972 -0.40278,-1.97268 -2.12969,-6.89874 -4.790103,-8.49399 2.866853,0.32342 5.396923,6.57776 5.653633,8.34288 2.10577,-0.9135 3.95393,-1.45004 4.48013,-2.05847 -0.58782,-2.72594 -1.96169,-7.14388 -4.18831,-8.46722 -0.91898,-0.54615 -1.9644,-0.79335 -3.05909,-0.83177 -0.37917,-0.0134 0.87533,1.27217 0.50345,1.15753 -3.112329,-0.56928 -5.012924,-0.43117 -7.564787,0.94521 -0.409069,0.26164 1.651477,0.7132 1.14769,0.84417 -1.584803,0.41203 -5.785924,2.01336 -6.588632,3.03422 -0.238201,0.30301 1.395404,0.56374 1.068479,0.76581 -1.386478,0.8569 -4.431799,2.57999 -5.471917,3.71531 -0.254908,0.2782 1.079671,0.24954 0.884785,0.54572 -1.641754,2.49505 -4.661838,4.04382 -4.661838,4.04382 0,0 3.566303,2.76259 5.592942,2.68354 0.446579,-0.0174 -1.186677,0.61274 -0.823091,0.91991 1.846266,1.58931 4.147879,2.70468 6.188075,2.82742 0.427251,0.0257 -1.280697,0.86718 -0.618915,0.80314 1.39626,0.41243 5.571432,0.27876 7.013162,-0.71804 0.444411,-0.1682 -0.936401,1.29585 -0.401427,1.12351 1.447402,0.16879 4.271784,-0.0123 6.169634,-1.70182 0.4274,-0.38927 -0.40383,1.44531 0.0814,1.12156 3.40292,-2.27047 5.03465,-7.098 5.04226,-11.18882 z"
         style="fill:#000000;fill-opacity:1;fill-rule:nonzero;stroke:#ffffff;stroke-width:0.53845692;stroke-linejoin:round;stroke-miterlimit:4;stroke-dasharray:none;stroke-opacity:1" />
      <path
         sodipodi:nodetypes="cccccccccccccccccccccssccssssscscsccccscc"
         inkscape:connector-curvature="0"
         id="path3769-6-7-6-7-1-5"
         d="m 115.17979,244.78749 c -0.8356,-0.46021 -2.31445,-1.06362 -4.8927,-1.7631 -0.41511,-2.15658 -2.14323,-7.2365 -4.38293,-8.80176 1.8021,2.88636 3.12682,6.11894 3.4657,8.58681 -0.74752,-0.18798 -2.82488,-0.67204 -3.61915,-0.85246 -0.15301,-1.55646 -4.17791,-7.48682 -5.68105,-7.64044 2.20394,2.24439 3.75671,4.72596 4.74028,7.38016 -1.36398,-0.28952 -4.29848,-0.81678 -5.783137,-0.82938 -1.358394,-2.33947 -2.737211,-3.55472 -4.712551,-4.05085 2.327984,1.39747 2.789155,2.39968 3.838635,4.02613 -3.429309,-0.46325 -6.400979,-0.85881 -7.82587,-0.2603 1.75733,-0.12766 4.819378,0.24392 7.804051,0.95657 -0.615404,1.30293 -2.003581,2.67215 -3.690613,3.7817 1.741486,-0.52983 3.564767,-1.69918 4.539759,-3.61389 1.612586,0.16169 4.187126,0.48959 5.791266,1.02628 -1.51771,2.98293 -2.41333,5.07661 -5.426784,6.85142 2.114294,-0.38085 5.181824,-3.38024 6.298634,-6.63301 0.86657,0.30791 3.0899,0.93865 3.87906,1.24972 -0.40278,1.97268 -2.12969,6.89874 -4.7901,8.49399 2.86686,-0.32342 5.39692,-6.57776 5.65365,-8.34289 2.10576,0.91351 3.95392,1.45004 4.48012,2.05848 -0.58783,2.72594 -1.96168,7.14388 -4.18831,8.46721 -0.91898,0.54615 -1.9644,0.79336 -3.0591,0.83177 -0.37917,0.0134 0.87534,-1.27217 0.50346,-1.15752 -3.11233,0.56927 -5.01293,0.43117 -7.56479,-0.94521 -0.40907,-0.26165 1.65147,-0.71321 1.14769,-0.84418 -1.5848,-0.41202 -5.785928,-2.01336 -6.588636,-3.03421 -0.238201,-0.30302 1.395404,-0.56375 1.068479,-0.76582 -1.386478,-0.85689 -4.431799,-2.57999 -5.471917,-3.7153 -0.254908,-0.27821 1.079671,-0.24955 0.884785,-0.54572 -1.641748,-2.49506 -4.661811,-4.04382 -4.661811,-4.04382 0,0 3.566276,-2.7626 5.592922,-2.68354 0.446579,0.0174 -1.186684,-0.61275 -0.823098,-0.91992 1.846266,-1.58931 4.147879,-2.70468 6.188076,-2.82741 0.42725,-0.0257 -1.280698,-0.86718 -0.618916,-0.80314 1.396261,-0.41243 5.571436,-0.27876 7.013166,0.71804 0.44441,0.16819 -0.9364,-1.29586 -0.40142,-1.12352 1.4474,-0.16879 4.27178,0.0123 6.16962,1.70182 0.42741,0.38928 -0.40383,-1.4453 0.0814,-1.12156 3.40291,2.27047 5.03465,7.098 5.04227,11.18882 z"
         style="fill:#000000;fill-opacity:1;fill-rule:nonzero;stroke:#ffffff;stroke-width:0.53845692;stroke-linejoin:round;stroke-miterlimit:4;stroke-dasharray:none;stroke-opacity:1" />
      <path
         sodipodi:nodetypes="cccccccccccccccccccccssccssssscscsccccscc"
         inkscape:connector-curvature="0"
         id="path3769-6-7-2-3-4-1"
         d="m 107.9787,156.41073 c -0.83559,-0.46022 -2.31444,-1.06362 -4.89269,-1.7631 -0.41511,-2.15659 -2.14323,-7.23651 -4.382931,-8.80176 1.802111,2.88636 3.126821,6.11893 3.465711,8.5868 -0.74753,-0.18798 -2.824891,-0.67204 -3.619154,-0.85245 -0.153021,-1.55647 -4.177918,-7.48682 -5.681053,-7.64044 2.203936,2.24438 3.75671,4.72595 4.740279,7.38015 -1.363981,-0.28952 -4.298489,-0.81678 -5.783138,-0.82938 -1.358394,-2.33946 -2.73721,-3.55472 -4.71255,-4.05085 2.327984,1.39747 2.789155,2.39968 3.838635,4.02613 -3.42931,-0.46324 -6.400979,-0.85881 -7.82587,-0.2603 1.75733,-0.12765 4.819377,0.24392 7.804051,0.95658 -0.615404,1.30292 -2.003582,2.67215 -3.690614,3.7817 1.741487,-0.52983 3.564768,-1.69919 4.539759,-3.61389 1.612584,0.16168 4.187129,0.48958 5.791267,1.02628 -1.517706,2.98292 -2.413328,5.07661 -5.426784,6.85142 2.114296,-0.38085 5.181824,-3.38024 6.298631,-6.63302 0.866577,0.30791 3.089901,0.93867 3.879061,1.24972 -0.40277,1.97269 -2.12969,6.89874 -4.790099,8.49399 2.866859,-0.32341 5.396919,-6.57775 5.653639,-8.34288 2.10577,0.9135 3.95393,1.45003 4.48013,2.05847 -0.58783,2.72594 -1.96168,7.14389 -4.18831,8.46723 -0.91898,0.54615 -1.9644,0.79335 -3.05909,0.83177 -0.37918,0.0134 0.87533,-1.27218 0.50345,-1.15753 -3.112328,0.56928 -5.01293,0.43117 -7.564793,-0.94521 -0.409061,-0.26165 1.651478,-0.7132 1.147691,-0.84417 -1.584797,-0.41204 -5.785924,-2.01337 -6.588632,-3.03422 -0.238201,-0.30302 1.395404,-0.56375 1.068479,-0.76583 -1.386478,-0.85689 -4.431799,-2.57997 -5.471917,-3.7153 -0.254908,-0.2782 1.079671,-0.24954 0.884785,-0.54571 -1.641748,-2.49506 -4.661811,-4.04383 -4.661811,-4.04383 0,0 3.566276,-2.76259 5.592921,-2.68354 0.446579,0.0175 -1.186683,-0.61275 -0.823097,-0.91991 1.846266,-1.58932 4.147879,-2.70468 6.188075,-2.82742 0.427251,-0.0257 -1.280698,-0.86718 -0.618915,-0.80314 1.39626,-0.41243 5.571439,-0.27876 7.013161,0.71804 0.444419,0.1682 -0.936393,-1.29585 -0.401419,-1.12352 1.447395,-0.16879 4.271782,0.0123 6.169622,1.70183 0.42741,0.38927 -0.40382,-1.44531 0.0814,-1.12157 3.40291,2.27048 5.03465,7.098 5.04227,11.18882 z"
         style="fill:#000000;fill-opacity:1;fill-rule:nonzero;stroke:#ffffff;stroke-width:0.53845692;stroke-linejoin:round;stroke-miterlimit:4;stroke-dasharray:none;stroke-opacity:1" />
    </g>
  </g>
</svg>
