<?xml version="1.0" encoding="UTF-8" standalone="no"?>
<!-- Created with Inkscape (http://www.inkscape.org/) -->

<svg
   xmlns:dc="http://purl.org/dc/elements/1.1/"
   xmlns:cc="http://creativecommons.org/ns#"
   xmlns:rdf="http://www.w3.org/1999/02/22-rdf-syntax-ns#"
   xmlns:svg="http://www.w3.org/2000/svg"
   xmlns="http://www.w3.org/2000/svg"
   xmlns:sodipodi="http://sodipodi.sourceforge.net/DTD/sodipodi-0.dtd"
   xmlns:inkscape="http://www.inkscape.org/namespaces/inkscape"
   width="1000"
   height="1000"
   viewBox="0 0 264.58333 264.58334"
   version="1.1"
   id="svg8"
   inkscape:version="0.92.3 (2405546, 2018-03-11)"
   sodipodi:docname="CTSC-Stem1.svg">
  <title
     id="title10">CTSS Stem1</title>
  <defs
     id="defs2">
    <inkscape:path-effect
       effect="powerstroke"
       id="path-effect837"
       is_visible="true"
       offset_points="0,-3.0658409 | 3.4663877,3.363866 | 6.7909555,0.25610048"
       sort_points="true"
       interpolator_type="CubicBezierFit"
       interpolator_beta="0.2"
       start_linecap_type="round"
       linejoin_type="extrp_arc"
       miter_limit="4"
       end_linecap_type="round" />
    <inkscape:path-effect
       effect="powerstroke"
       id="path-effect833"
       is_visible="true"
       offset_points="0,0.83411025 | 3.031749,0.48732772 | 5.605359,-1.05863"
       sort_points="true"
       interpolator_type="CubicBezierSmooth"
       interpolator_beta="0.2"
       start_linecap_type="round"
       linejoin_type="extrp_arc"
       miter_limit="4"
       end_linecap_type="round" />
    <inkscape:path-effect
       effect="powerstroke"
       id="path-effect829"
       is_visible="true"
       offset_points="0.20567359,4.2827885 | 2.0087388,-2.2202907 | 3.8200017,-6.2286279"
       sort_points="true"
       interpolator_type="Linear"
       interpolator_beta="0.2"
       start_linecap_type="round"
       linejoin_type="miter"
       miter_limit="4"
       end_linecap_type="round" />
    <inkscape:path-effect
       effect="spiro"
       id="path-effect22"
       is_visible="true" />
  </defs>
  <sodipodi:namedview
     id="base"
     pagecolor="#ffffff"
     bordercolor="#666666"
     borderopacity="1.0"
     inkscape:pageopacity="0.0"
     inkscape:pageshadow="2"
     inkscape:zoom="0.87705101"
     inkscape:cx="506.67827"
     inkscape:cy="511.43955"
     inkscape:document-units="mm"
     inkscape:current-layer="layer1"
     showgrid="false"
     units="px"
     inkscape:pagecheckerboard="true"
     inkscape:window-width="1920"
     inkscape:window-height="1123"
     inkscape:window-x="1920"
     inkscape:window-y="0"
     inkscape:window-maximized="1" />
  <metadata
     id="metadata5">
    <rdf:RDF>
      <cc:Work
         rdf:about="">
        <dc:format>image/svg+xml</dc:format>
        <dc:type
           rdf:resource="http://purl.org/dc/dcmitype/StillImage" />
        <dc:title>CTSC Stem1</dc:title>
        <dc:date>July 04, 2019</dc:date>
        <dc:creator>
          <cc:Agent>
            <dc:title>Troy Dawson</dc:title>
          </cc:Agent>
        </dc:creator>
        <dc:rights>
          <cc:Agent>
            <dc:title>The copyright holder of this file allows anyone to use it for any purpose, provided that the copyright holder is properly attributed. Redistribution, derivative work, commercial use, and all other use is permitted.</dc:title>
          </cc:Agent>
        </dc:rights>
        <cc:license
           rdf:resource="http://creativecommons.org/licenses/by/4.0/" />
      </cc:Work>
      <cc:License
         rdf:about="http://creativecommons.org/licenses/by/4.0/">
        <cc:permits
           rdf:resource="http://creativecommons.org/ns#Reproduction" />
        <cc:permits
           rdf:resource="http://creativecommons.org/ns#Distribution" />
        <cc:requires
           rdf:resource="http://creativecommons.org/ns#Notice" />
        <cc:requires
           rdf:resource="http://creativecommons.org/ns#Attribution" />
        <cc:permits
           rdf:resource="http://creativecommons.org/ns#DerivativeWorks" />
      </cc:License>
    </rdf:RDF>
  </metadata>
  <g
     inkscape:label="Layer 1"
     inkscape:groupmode="layer"
     id="layer1"
     transform="translate(0,-32.41665)">
    <g
       id="g842"
       transform="matrix(1.3183214,0,0,1.3183214,-41.476718,-54.725387)">
      <path
         sodipodi:nodetypes="cssc"
         inkscape:original-d="m 37.751525,77.589414 c 20.435562,22.048346 39.478315,45.091626 59.913347,67.140506 20.435038,22.04887 11.287798,40.09077 16.235028,60.63388 4.94723,20.54312 73.35223,27.53361 110.02794,41.30082"
         inkscape:path-effect="#path-effect22;#path-effect829"
         inkscape:connector-curvature="0"
         id="path20"
         d="m 35.951669,81.475646 c 5.528007,2.560222 10.827132,5.607858 15.83972,9.081364 19.909044,12.63385 36.011069,31.96247 44.527592,54.61905 3.848289,9.68806 6.329109,19.87386 9.092099,30.08289 2.76436,10.21411 5.72647,20.09298 10.48528,29.2077 0.0854,0.16449 0.17144,0.32863 0.25803,0.49242 9.41727,18.79958 26.34197,33.35107 45.70881,39.83857 16.01825,5.36579 33.62815,5.20854 49.31324,-0.009 3.475,-1.01604 6.87127,-2.27875 10.15326,-3.78507 a 6.2286279,6.2286279 90 0 1 5.19628,11.32174 c -3.84396,1.76425 -7.80927,3.23748 -11.8536,4.41997 -18.56958,4.80008 -38.48957,3.50197 -55.91153,-3.68298 -21.05977,-8.68521 -38.07847,-25.803 -46.64362,-46.25406 -0.0719,-0.18226 -0.1432,-0.36475 -0.21379,-0.54748 -3.83867,-10.00097 -5.68236,-20.49336 -7.24675,-30.84346 -1.56492,-10.35361 -2.8936,-20.93071 -5.645927,-31.1337 C 92.108234,120.42619 77.002743,98.767816 56.67009,83.516626 51.263055,79.769758 45.53694,76.475314 39.551381,73.703182 a 4.2827885,4.2827885 90 0 0 -3.599712,7.772464 z"
         style="fill:#000000;fill-rule:nonzero;stroke:none;stroke-width:0.26499999;stroke-linecap:butt;stroke-linejoin:miter;stroke-miterlimit:4;stroke-dasharray:none;stroke-opacity:1" />
      <path
         transform="matrix(1.2804605,-0.59708852,0.67771373,1.4533618,-101.14611,1.2749363)"
         inkscape:path-effect="#path-effect833"
         d="m 66.079175,159.03543 c 0.01041,-0.0896 0.03162,-0.13293 0.02526,-0.12725 -0.0054,0.005 -0.04012,0.0369 -0.06669,0.0461 -0.0277,0.01 -0.02877,-0.001 0.0063,-0.006 0.03528,-0.004 0.0982,-0.002 0.18774,0.0184 0.169087,0.0393 0.380176,0.13328 0.579823,0.27085 0.208962,0.14398 0.289724,0.2486 0.34854,0.3198 0.209038,0.40601 0.271919,0.80888 0.219819,1.20484 -0.05189,0.39434 -0.220479,0.79572 -0.493979,1.17697 -0.272836,0.38031 -0.637086,0.72184 -1.048295,0.99342 -0.418976,0.27671 -0.868635,0.4691 -1.297265,0.56424 -0.84062,0.17583 -1.629408,0.11518 -2.339836,-0.1008 -0.764894,-0.23253 -1.442686,-0.64588 -2.009283,-1.15038 -1.465415,-1.30481 -2.047087,-3.02514 -2.163947,-4.2473 -0.01493,-0.15718 -0.02431,-0.30856 -0.02914,-0.45379 -0.02839,-0.85418 0.06454,-1.85678 0.445833,-2.93577 0.339919,-0.96192 0.901838,-1.95813 1.747075,-2.88559 1.418812,-1.55683 3.621243,-2.86796 6.251031,-3.11056 1.616084,-0.12892 3.187404,0.11036 4.652109,0.67215 1.452682,0.55718 2.772769,1.4213 3.897124,2.50966 2.378425,2.30227 3.746213,5.45709 3.885866,8.62805 0.177704,0.94327 0.196919,1.76715 0.114312,2.30029 -0.17292,1.11599 -0.308716,1.47272 -0.308716,1.47272 a 1.05863,1.05863 90 0 1 -2.046398,-0.54317 c 0,0 0.115643,-0.30389 0.262821,-1.25375 0.06943,-0.44811 0.263609,-1.12747 0.420364,-1.95891 0.07392,-2.77861 -0.900191,-5.73736 -2.938204,-8.06311 -0.960346,-1.09593 -2.132264,-2.01634 -3.472395,-2.66157 -1.350873,-0.65041 -2.856511,-1.01329 -4.462814,-1.00606 -2.622103,-0.0212 -5.016639,1.06716 -6.673384,2.59766 -0.98292,0.90802 -1.683887,1.94179 -2.12879,2.98986 -0.500006,1.17788 -0.652219,2.30977 -0.619952,3.28048 0.0055,0.1642 0.01584,0.33515 0.03227,0.51245 0.129635,1.40646 0.759719,3.38758 2.423061,4.9366 0.64854,0.60397 1.448204,1.12498 2.381029,1.43477 0.871306,0.28935 1.854545,0.39199 2.906674,0.19886 0.588592,-0.10328 1.186188,-0.333 1.73668,-0.66379 0.539836,-0.32439 1.041497,-0.75052 1.439356,-1.25631 0.39847,-0.50657 0.698525,-1.1009 0.816062,-1.75426 0.121425,-0.67497 0.04159,-1.38003 -0.279062,-2.06766 -0.16219,-0.35991 -0.455618,-0.67107 -0.738928,-0.89941 -0.317283,-0.25571 -0.690605,-0.46436 -1.065382,-0.5822 -0.205771,-0.0647 -0.423465,-0.10579 -0.644237,-0.1081 -0.241361,-0.003 -0.490445,0.0415 -0.725331,0.15456 -0.267623,0.1288 -0.473666,0.32649 -0.618161,0.55836 -0.164843,0.26452 -0.236986,0.55141 -0.266092,0.80205 a 0.83411025,0.83411025 90 0 0 1.657084,0.19244 z"
         sodipodi:t0="0"
         sodipodi:argument="-20.304741"
         sodipodi:radius="13.372873"
         sodipodi:revolution="1.2923938"
         sodipodi:expansion="1"
         sodipodi:cy="158.93921"
         sodipodi:cx="65.250633"
         id="path831"
         style="fill:#000000;fill-rule:nonzero;stroke:none;stroke-width:0.26458332"
         sodipodi:type="spiral" />
      <path
         transform="matrix(-0.76604445,-0.64278761,-0.64278761,0.76604445,345.22916,139.01808)"
         inkscape:path-effect="#path-effect837"
         d="m 141.96574,142.79293 c -0.79755,0.26527 -1.6495,0.39599 -2.50485,0.29621 -0.87797,-0.10242 -1.6556,-0.43717 -2.27851,-0.95115 -0.60589,-0.49994 -0.99004,-1.10488 -1.22835,-1.67608 -0.23741,-0.56903 -0.35061,-1.15095 -0.39365,-1.68653 -0.0853,-1.06123 0.0878,-2.14708 0.38466,-3.0536 0.29903,-0.91328 0.76295,-1.76636 1.36356,-2.323 1.15,-1.36608 2.53275,-2.13711 3.94166,-2.47362 1.39965,-0.33429 2.84088,-0.246 4.18665,0.10535 1.35164,0.35289 2.64332,0.98021 3.75703,1.77001 1.1195,0.79392 2.04883,1.74426 2.69121,2.73824 1.3091,1.75038 2.01622,3.63992 2.27348,5.52138 0.25789,1.88609 0.0705,3.81242 -0.46903,5.65517 -1.08813,3.71689 -3.5879,7.04435 -6.71985,9.05083 -2.33119,1.55295 -4.83278,2.4307 -7.35641,2.7592 -2.19094,0.28519 -4.43134,0.1604 -6.62459,-0.32791 -0.34073,-0.0759 -0.6803,-0.16046 -1.01834,-0.25364 -5.04861,-1.39158 -9.69607,-4.67914 -12.64322,-9.17137 -1.98875,-3.04942 -3.167,-6.34974 -3.63238,-9.7237 -0.4663,-3.3806 -0.2193,-6.85912 0.67582,-10.23265 1.79241,-6.75527 6.16971,-13.01824 12.39386,-16.98461 7.90295,-4.9699 17.18611,-5.90751 25.84699,-3.50167 8.65126,2.40317 16.58798,8.13487 21.507,16.30302 5.5327,9.24458 6.72966,19.98841 4.25852,30.04597 -1.4359,5.84415 -4.10668,11.43144 -7.85436,16.30266 -2.69549,3.50359 -6.01854,6.54056 -9.76392,9.07272 a 0.25610048,0.25610048 90 0 0 0.28688,0.42433 c 3.79399,-2.56504 7.06418,-5.7227 9.87863,-9.17912 3.92326,-4.81817 6.82891,-10.40743 8.51182,-16.34012 2.88846,-10.18259 2.1881,-21.44912 -3.27735,-31.48995 -4.83156,-8.92897 -13.04482,-15.59831 -22.45099,-18.72135 -9.39893,-3.12063 -20.07545,-2.71063 -29.55483,2.71899 -7.58586,4.29755 -13.20851,11.49297 -15.71001,19.64103 -1.25195,4.07795 -1.72603,8.41125 -1.25063,12.73553 0.47605,4.33023 1.90247,8.62662 4.41717,12.59714 3.81093,6.04135 9.94239,10.36583 16.65494,12.04294 0.45249,0.11305 0.90787,0.21414 1.36561,0.30294 2.94751,0.57179 5.99286,0.63515 8.98451,0.10527 3.46527,-0.61376 6.81793,-2.01669 9.8219,-4.28707 4.14651,-3.20533 6.90004,-8.01691 7.6698,-12.9418 0.38745,-2.47887 0.27632,-5.00304 -0.41716,-7.38849 -0.69526,-2.39159 -1.96265,-4.599 -3.8332,-6.46669 -1.13262,-1.0298 -2.50431,-1.83907 -3.93885,-2.38616 -1.44162,-0.5498 -2.96694,-0.84307 -4.42744,-0.82813 -1.46774,0.015 -2.83688,0.34056 -3.98536,0.99052 -1.14296,0.64685 -2.03672,1.59498 -2.65102,2.85188 -0.0393,0.41811 -0.0437,0.99204 0.0707,1.65478 0.11201,0.64894 0.32693,1.28464 0.62107,1.68503 0.14245,0.19392 0.29056,0.30972 0.40014,0.31639 0.1069,0.006 0.15584,-0.10211 0.0703,-0.26505 -0.0946,-0.1801 -0.27331,-0.2965 -0.43419,-0.39267 -0.14652,-0.0876 -0.18767,-0.1215 -0.074,-0.25857 a 3.0658409,3.0658409 90 0 1 2.45864,5.61717 z"
         sodipodi:t0="0"
         sodipodi:argument="-9.8373575"
         sodipodi:radius="45.977802"
         sodipodi:revolution="1.7356018"
         sodipodi:expansion="1"
         sodipodi:cy="139.98434"
         sodipodi:cx="140.73642"
         id="path835"
         style="fill:#000000;fill-rule:nonzero;stroke:none;stroke-width:0.26458332"
         sodipodi:type="spiral" />
    </g>
  </g>
</svg>
